<svg width="42" height="34" viewBox="0 0 42 34" fill="none" xmlns="http://www.w3.org/2000/svg">
<path d="M37.667 0.333008H4.33366C2.04199 0.333008 0.166992 2.20801 0.166992 4.49967V29.4997C0.166992 31.7913 2.04199 33.6663 4.33366 33.6663H37.667C39.9587 33.6663 41.8337 31.7913 41.8337 29.4997V4.49967C41.8337 2.20801 39.9587 0.333008 37.667 0.333008ZM36.8337 9.18717L23.2087 17.708C21.8545 18.5622 20.1462 18.5622 18.792 17.708L5.16699 9.18717C4.95809 9.06991 4.77516 8.91147 4.62926 8.72145C4.48336 8.53144 4.37754 8.3138 4.31819 8.0817C4.25884 7.8496 4.24721 7.60787 4.28398 7.37115C4.32076 7.13442 4.40519 6.90762 4.53216 6.70447C4.65913 6.50132 4.826 6.32604 5.02267 6.18925C5.21934 6.05245 5.44172 5.95699 5.67636 5.90863C5.91099 5.86027 6.153 5.86002 6.38773 5.9079C6.62246 5.95578 6.84504 6.05079 7.04199 6.18717L21.0003 14.9163L34.9587 6.18717C35.1556 6.05079 35.3782 5.95578 35.6129 5.9079C35.8477 5.86002 36.0897 5.86027 36.3243 5.90863C36.5589 5.95699 36.7813 6.05245 36.978 6.18925C37.1746 6.32604 37.3415 6.50132 37.4685 6.70447C37.5955 6.90762 37.6799 7.13442 37.7167 7.37115C37.7534 7.60787 37.7418 7.8496 37.6825 8.0817C37.6231 8.3138 37.5173 8.53144 37.3714 8.72145C37.2255 8.91147 37.0426 9.06991 36.8337 9.18717Z" fill="#D7D7D7"/>
</svg>
