<svg width="34" height="40" viewBox="0 0 34 40" fill="none" xmlns="http://www.w3.org/2000/svg">
<path d="M28.7853 5.04961C22.277 -1.35247 11.7249 -1.35247 5.21656 5.04961C3.67131 6.55926 2.44344 8.36259 1.60513 10.3536C0.766811 12.3446 0.334961 14.4831 0.334961 16.6434C0.334961 18.8036 0.766811 20.9421 1.60513 22.9331C2.44344 24.9241 3.67131 26.7275 5.21656 28.2371L16.9999 39.8309L28.7853 28.2371C30.3305 26.7275 31.5584 24.9241 32.3967 22.9331C33.2351 20.9421 33.6669 18.8036 33.6669 16.6434C33.6669 14.4831 33.2351 12.3446 32.3967 10.3536C31.5584 8.36259 30.3305 6.55926 28.7853 5.04961ZM16.9999 22.1225C15.6082 22.1225 14.302 21.5809 13.3166 20.5975C12.341 19.6199 11.7932 18.2953 11.7932 16.9142C11.7932 15.5331 12.341 14.2085 13.3166 13.2309C14.2999 12.2475 15.6082 11.7059 16.9999 11.7059C18.3916 11.7059 19.6999 12.2475 20.6832 13.2309C21.6587 14.2085 22.2066 15.5331 22.2066 16.9142C22.2066 18.2953 21.6587 19.6199 20.6832 20.5975C19.6999 21.5809 18.3916 22.1225 16.9999 22.1225Z" fill="#D7D7D7"/>
</svg>
