<svg width="30" height="42" viewBox="0 0 30 42" fill="none" xmlns="http://www.w3.org/2000/svg">
<path d="M5.19208 1.08118L7.43583 0.364513C9.53583 -0.306321 11.7817 0.779096 12.6817 2.89993L14.4733 7.12493C15.2546 8.96451 14.8212 11.1291 13.4025 12.4749L9.45874 16.2208C9.7018 18.4624 10.4546 20.6687 11.7171 22.8395C12.9176 24.9392 14.5263 26.7774 16.4483 28.2458L21.19 26.6624C22.9858 26.0645 24.9421 26.7541 26.0442 28.3728L28.6108 32.1437C29.8942 34.027 29.6629 36.6228 28.0733 38.2187L26.3692 39.9291C24.6733 41.6312 22.2525 42.2499 20.0108 41.5499C14.7219 39.8999 9.85874 35.002 5.42124 26.8562C0.978188 18.6965 -0.589868 11.7742 0.717077 6.08951C1.26708 3.69785 2.97124 1.7916 5.19624 1.08118" fill="#D7D7D7"/>
</svg>
